<svg version="1.0" xmlns="http://www.w3.org/2000/svg"
 width="253pt" height="197pt" viewBox="0 0 253 197"
 preserveAspectRatio="xMidYMid meet">
<g transform="translate(0.000000,197.000000) scale(0.100000,-0.100000)"
fill="#393939" stroke="none">
<path d="M802 1867 c-5 -12 -12 -183 -16 -380 l-8 -357 -38 22 c-21 12 -45 36
-54 54 -22 47 -38 237 -32 386 5 132 -1 156 -36 142 -28 -10 -38 -66 -44 -239
-6 -195 6 -299 42 -360 25 -44 47 -59 115 -79 l45 -13 3 -95 3 -95 -32 -7
c-17 -3 -59 -6 -93 -6 -85 0 -134 -16 -149 -47 -10 -21 -8 -27 8 -40 20 -15
60 -14 214 4 l53 6 -7 -99 c-4 -54 -8 -100 -9 -100 0 -1 -63 -6 -139 -11 -122
-8 -140 -12 -160 -31 -17 -18 -19 -26 -11 -40 10 -15 39 -17 360 -15 321 1
349 3 361 19 37 50 5 63 -172 71 l-145 6 0 97 0 97 105 -5 c91 -4 108 -2 125
13 49 44 11 75 -93 75 -34 0 -79 3 -100 6 l-38 7 3 95 3 96 49 12 c26 7 58 22
71 34 60 56 85 188 85 445 0 176 -15 224 -60 195 -12 -8 -16 -50 -21 -237 -8
-292 -21 -333 -108 -358 l-24 -7 8 366 c8 386 7 396 -36 396 -11 0 -23 -10
-28 -23z"/>
<path d="M1507 1800 c-21 -4 -42 -13 -47 -21 -14 -22 -10 -59 6 -65 8 -3 104
1 212 8 109 8 199 14 199 14 1 -1 4 -45 8 -98 l7 -98 -85 -39 c-179 -83 -310
-270 -360 -513 -29 -139 -17 -268 25 -268 28 0 36 24 53 159 9 68 26 150 37
183 30 89 95 213 134 257 43 47 130 108 168 117 l27 6 0 -193 c0 -328 -21
-436 -117 -619 -73 -139 -144 -247 -232 -350 -54 -64 -71 -91 -69 -110 5 -42
48 -39 93 7 139 142 276 347 345 516 l27 68 28 -78 c67 -190 177 -372 311
-517 44 -48 68 -66 86 -66 60 0 42 55 -48 154 -75 82 -159 211 -220 341 -92
196 -113 301 -121 618 -5 194 -4 237 7 237 58 0 187 -115 234 -208 48 -95 84
-222 96 -337 17 -160 22 -179 47 -183 14 -2 27 5 39 23 24 37 14 191 -20 310
-50 173 -163 363 -250 422 -22 14 -65 34 -95 44 l-56 17 -3 97 -3 97 195 -4
c167 -3 197 -1 211 13 21 21 10 45 -27 58 -35 13 -779 13 -842 1z"/>
<path d="M280 1742 c-135 -87 -242 -284 -256 -473 -7 -95 0 -129 27 -129 26 0
33 17 69 169 17 68 33 126 36 129 9 10 44 -30 55 -64 7 -19 20 -80 29 -136
l18 -103 -22 -60 c-70 -187 -87 -442 -46 -685 33 -194 85 -327 120 -306 25 16
22 77 -13 248 -41 200 -46 327 -21 520 21 158 45 225 120 330 97 135 133 253
114 382 -25 179 -116 250 -230 178z m118 -77 c36 -25 44 -78 29 -182 -14 -95
-38 -156 -81 -208 -22 -26 -25 -28 -25 -10 0 46 -33 144 -70 209 -22 38 -40
74 -40 81 0 7 24 38 53 69 57 61 91 71 134 41z"/>
</g>
</svg>
