<svg version="1.0" xmlns="http://www.w3.org/2000/svg"
 width="230.000000pt" height="71.000000pt" viewBox="0 0 230.000000 71.000000"
 preserveAspectRatio="xMidYMid meet">
<g transform="translate(0.000000,71.000000) scale(0.100000,-0.100000)"
fill="#6e7173" stroke="none">
<path d="M2006 633 c-3 -3 -6 -28 -6 -55 0 -33 -4 -48 -13 -48 -23 0 -37 23
-37 63 0 26 -4 37 -12 35 -39 -13 -4 -128 38 -128 38 0 28 -18 -11 -22 -20 -2
-35 -7 -35 -13 0 -5 15 -11 35 -13 57 -5 40 -22 -23 -22 -62 0 -78 -6 -63 -24
13 -16 264 -9 258 7 -2 7 -28 13 -60 15 -61 3 -80 22 -22 22 24 0 35 5 35 15
0 10 -10 15 -30 15 -16 0 -30 5 -30 10 0 6 9 10 20 10 25 0 52 51 48 93 -3 36
-22 40 -26 5 -6 -50 -13 -68 -27 -68 -11 0 -15 12 -15 49 0 47 -9 68 -24 54z"/>
<path d="M1383 617 c-4 -8 -34 -22 -66 -32 -54 -17 -75 -30 -65 -41 3 -2 34 3
70 13 58 15 74 16 132 4 65 -13 95 -9 66 9 -7 5 -30 11 -49 15 -20 4 -46 16
-58 27 -18 16 -22 17 -30 5z"/>
<path d="M265 608 c-3 -7 -6 -53 -7 -103 l-3 -90 -68 -3 c-58 -3 -68 -5 -65
-20 3 -14 14 -16 69 -14 l66 4 6 -39 c4 -21 7 -84 7 -140 0 -62 4 -103 10
-103 6 0 10 53 10 140 l0 140 70 0 c56 0 70 3 70 15 0 11 -11 15 -39 15 -21 0
-53 3 -70 6 l-31 7 0 98 c0 61 -4 99 -10 99 -6 0 -13 -6 -15 -12z"/>
<path d="M691 573 c-21 -17 -25 -32 -32 -114 -8 -95 3 -256 20 -288 22 -40 52
-55 107 -55 43 0 59 4 77 22 21 22 22 29 22 217 0 231 2 227 -103 233 -55 3
-72 1 -91 -15z m152 -27 c17 -17 30 -201 21 -296 -9 -87 -24 -110 -74 -110
-66 0 -88 29 -101 130 -13 105 -3 248 19 273 19 22 114 24 135 3z"/>
<path d="M703 358 c2 -7 11 -13 20 -12 10 0 42 1 72 2 85 3 66 22 -21 22 -56
0 -75 -3 -71 -12z"/>
<path d="M1335 542 c-27 -6 -30 -12 -33 -48 -4 -50 17 -77 53 -68 12 3 26 1
29 -5 5 -7 -7 -11 -33 -11 -30 0 -41 -4 -41 -15 0 -11 11 -15 40 -15 22 0 40
-4 40 -10 0 -5 -21 -10 -46 -10 -28 0 -44 -4 -42 -11 2 -6 7 -10 11 -10 4 1
48 1 97 1 53 0 90 4 90 10 0 6 -20 10 -45 10 -54 0 -60 17 -8 22 52 4 56 28 4
28 -51 0 -54 18 -3 22 36 3 37 4 40 47 2 24 -1 48 -6 53 -12 12 -109 19 -147
10z m55 -31 c0 -5 -16 -11 -35 -13 -34 -4 -43 1 -28 15 10 10 63 8 63 -2z m75
-1 c4 -6 -7 -10 -24 -10 -17 0 -31 5 -31 10 0 6 11 10 24 10 14 0 28 -4 31
-10z m-75 -51 c0 -5 -16 -9 -35 -9 -41 0 -47 17 -7 22 31 4 42 1 42 -13z m58
15 c32 -9 27 -24 -8 -24 -20 0 -30 5 -30 15 0 17 4 18 38 9z"/>
<path d="M1948 385 c-3 -3 -3 -34 -1 -68 3 -35 -2 -101 -11 -151 -9 -49 -13
-92 -10 -95 10 -10 23 24 35 91 l12 68 38 0 c42 0 43 -3 54 -85 6 -52 19 -84
29 -74 3 3 1 32 -5 65 -6 32 -12 101 -13 153 -1 64 -5 96 -14 99 -6 2 -12 -4
-12 -13 0 -14 -6 -16 -37 -10 -21 4 -39 11 -41 16 -4 10 -16 12 -24 4z m102
-91 c0 -33 -1 -34 -41 -34 -39 0 -40 1 -37 32 2 28 8 34 33 39 40 7 45 4 45
-37z"/>
<path d="M1987 304 c-15 -15 -6 -24 24 -24 20 0 29 4 27 13 -5 14 -40 21 -51
11z"/>
<path d="M1308 279 c-35 -34 -48 -53 -40 -56 8 -3 28 10 45 28 l31 34 9 -35
c15 -62 41 -103 85 -137 40 -30 82 -44 82 -25 -1 4 -24 21 -53 37 -28 17 -58
42 -67 57 -14 26 -14 29 8 43 12 9 22 25 22 35 0 32 16 31 59 -6 63 -54 64
-29 2 27 -30 27 -58 49 -62 49 -3 0 -9 -18 -13 -39 -10 -65 -40 -70 -38 -6 1
19 -3 37 -8 40 -5 3 -33 -17 -62 -46z"/>
</g>
</svg>
